<svg width="17" height="17" viewBox="0 0 17 17" fill="none" xmlns="http://www.w3.org/2000/svg">
<path fill-rule="evenodd" clip-rule="evenodd" d="M9.28572 0.882498C9.22974 0.755513 9.14019 0.64797 9.02765 0.572591C8.91511 0.497213 8.7843 0.457153 8.6507 0.457153C8.51709 0.457153 8.38628 0.497213 8.27374 0.572591C8.1612 0.64797 8.07165 0.755513 8.01567 0.882498L6.00849 5.43586L1.25209 6.02663C1.11939 6.04303 0.993952 6.09889 0.890626 6.18758C0.787301 6.27627 0.710413 6.39409 0.669062 6.5271C0.627712 6.66011 0.62363 6.80273 0.6573 6.93809C0.69097 7.07345 0.760982 7.19588 0.859051 7.29088L4.37687 10.6949L3.44321 15.6143C3.41728 15.7515 3.4294 15.8935 3.47814 16.0236C3.52688 16.1538 3.61021 16.2666 3.71826 16.3488C3.82632 16.4309 3.95459 16.479 4.0879 16.4872C4.22122 16.4955 4.35401 16.4636 4.47058 16.3954L8.6507 13.946L12.8308 16.3954C12.9474 16.4639 13.0804 16.496 13.2139 16.4878C13.3475 16.4796 13.4759 16.4316 13.5841 16.3493C13.6923 16.267 13.7757 16.1539 13.8244 16.0235C13.8731 15.8932 13.8851 15.7509 13.8589 15.6136L12.9252 10.6957L16.4423 7.29088C16.5404 7.19588 16.6104 7.07345 16.6441 6.93809C16.6778 6.80273 16.6737 6.66011 16.6323 6.5271C16.591 6.39409 16.5141 6.27627 16.4108 6.18758C16.3074 6.09889 16.182 6.04303 16.0493 6.02663L11.2922 5.43513L9.28572 0.882498Z" fill="#FAC50A"/>
</svg>
